<svg width="208" height="64" viewBox="0 0 208 64" fill="none" xmlns="http://www.w3.org/2000/svg">
<path d="M49.2784 30.4375H46.7898C46.7443 30.1155 46.6515 29.8295 46.5114 29.5795C46.3712 29.3258 46.1913 29.1098 45.9716 28.9318C45.7519 28.7538 45.4981 28.6174 45.2102 28.5227C44.9261 28.428 44.6174 28.3807 44.2841 28.3807C43.6818 28.3807 43.1572 28.5303 42.7102 28.8295C42.2633 29.125 41.9167 29.5568 41.6705 30.125C41.4242 30.6894 41.3011 31.375 41.3011 32.1818C41.3011 33.0114 41.4242 33.7083 41.6705 34.2727C41.9205 34.8371 42.2689 35.2633 42.7159 35.5511C43.1629 35.839 43.6799 35.983 44.267 35.983C44.5966 35.983 44.9015 35.9394 45.1818 35.8523C45.4659 35.7652 45.7178 35.6383 45.9375 35.4716C46.1572 35.3011 46.339 35.0947 46.483 34.8523C46.6307 34.6098 46.733 34.3333 46.7898 34.0227L49.2784 34.0341C49.214 34.5682 49.053 35.0833 48.7955 35.5795C48.5417 36.072 48.1989 36.5133 47.767 36.9034C47.339 37.2898 46.8277 37.5966 46.233 37.8239C45.642 38.0473 44.9735 38.1591 44.2273 38.1591C43.1894 38.1591 42.2614 37.9242 41.4432 37.4545C40.6288 36.9848 39.9848 36.3049 39.5114 35.4148C39.0417 34.5246 38.8068 33.447 38.8068 32.1818C38.8068 30.9129 39.0455 29.8333 39.5227 28.9432C40 28.053 40.6477 27.375 41.4659 26.9091C42.2841 26.4394 43.2045 26.2045 44.2273 26.2045C44.9015 26.2045 45.5265 26.2992 46.1023 26.4886C46.6818 26.678 47.1951 26.9545 47.642 27.3182C48.089 27.678 48.4527 28.1193 48.733 28.642C49.017 29.1648 49.1989 29.7633 49.2784 30.4375ZM52.4576 32.9545V38H50.0372V26.3636H52.3894V30.8125H52.4917C52.6887 30.2973 53.0069 29.8939 53.4462 29.6023C53.8856 29.3068 54.4368 29.1591 55.0997 29.1591C55.7057 29.1591 56.2341 29.2917 56.6849 29.5568C57.1394 29.8182 57.4917 30.1951 57.7417 30.6875C57.9955 31.1761 58.1205 31.7614 58.1167 32.4432V38H55.6962V32.875C55.7 32.3371 55.5637 31.9186 55.2872 31.6193C55.0144 31.3201 54.6319 31.1705 54.1394 31.1705C53.8099 31.1705 53.5182 31.2405 53.2644 31.3807C53.0144 31.5208 52.8175 31.7254 52.6735 31.9943C52.5334 32.2595 52.4614 32.5795 52.4576 32.9545ZM61.5502 38.1648C60.9934 38.1648 60.4971 38.0682 60.0615 37.875C59.6259 37.678 59.2812 37.3883 59.0274 37.0057C58.7774 36.6193 58.6524 36.1383 58.6524 35.5625C58.6524 35.0777 58.7415 34.6705 58.9195 34.3409C59.0975 34.0114 59.3399 33.7462 59.6468 33.5455C59.9536 33.3447 60.3021 33.1932 60.6922 33.0909C61.0862 32.9886 61.499 32.9167 61.9309 32.875C62.4384 32.822 62.8475 32.7727 63.1581 32.7273C63.4687 32.678 63.6941 32.6061 63.8343 32.5114C63.9744 32.4167 64.0445 32.2765 64.0445 32.0909V32.0568C64.0445 31.697 63.9309 31.4186 63.7036 31.2216C63.4801 31.0246 63.1619 30.9261 62.749 30.9261C62.3134 30.9261 61.9668 31.0227 61.7093 31.2159C61.4517 31.4053 61.2812 31.6439 61.1979 31.9318L58.9593 31.75C59.0729 31.2197 59.2964 30.7614 59.6297 30.375C59.963 29.9848 60.393 29.6856 60.9195 29.4773C61.4498 29.2652 62.0634 29.1591 62.7604 29.1591C63.2452 29.1591 63.7093 29.2159 64.1524 29.3295C64.5994 29.4432 64.9952 29.6193 65.3399 29.858C65.6884 30.0966 65.963 30.4034 66.1638 30.7784C66.3646 31.1496 66.4649 31.5947 66.4649 32.1136V38H64.1695V36.7898H64.1013C63.9612 37.0625 63.7737 37.303 63.5388 37.5114C63.304 37.7159 63.0218 37.8769 62.6922 37.9943C62.3627 38.108 61.982 38.1648 61.5502 38.1648ZM62.2434 36.4943C62.5994 36.4943 62.9138 36.4242 63.1865 36.2841C63.4593 36.1402 63.6733 35.947 63.8286 35.7045C63.9839 35.4621 64.0615 35.1875 64.0615 34.8807V33.9545C63.9858 34.0038 63.8816 34.0492 63.749 34.0909C63.6202 34.1288 63.4744 34.1648 63.3115 34.1989C63.1487 34.2292 62.9858 34.2576 62.8229 34.2841C62.66 34.3068 62.5123 34.3277 62.3797 34.3466C62.0956 34.3883 61.8475 34.4545 61.6354 34.5455C61.4233 34.6364 61.2585 34.7595 61.1411 34.9148C61.0237 35.0663 60.9649 35.2557 60.9649 35.483C60.9649 35.8125 61.0843 36.0644 61.3229 36.2386C61.5653 36.4091 61.8721 36.4943 62.2434 36.4943ZM72.0248 29.2727V31.0909H66.7691V29.2727H72.0248ZM67.9623 27.1818H70.3828V35.3182C70.3828 35.5417 70.4169 35.7159 70.4851 35.8409C70.5532 35.9621 70.6479 36.0473 70.7691 36.0966C70.8941 36.1458 71.0381 36.1705 71.201 36.1705C71.3146 36.1705 71.4282 36.161 71.5419 36.142C71.6555 36.1193 71.7426 36.1023 71.8032 36.0909L72.1839 37.892C72.0627 37.9299 71.8923 37.9735 71.6726 38.0227C71.4529 38.0758 71.1858 38.108 70.8714 38.1193C70.2881 38.142 69.7767 38.0644 69.3373 37.8864C68.9017 37.7083 68.5627 37.4318 68.3203 37.0568C68.0779 36.6818 67.9585 36.2083 67.9623 35.6364V27.1818ZM77.4358 38H74.7994L78.8165 26.3636H81.9869L85.9983 38H83.3619L80.4472 29.0227H80.3563L77.4358 38ZM77.271 33.4261H83.4983V35.3466H77.271V33.4261ZM88.8991 26.3636V38H86.4389V26.3636H88.8991Z" fill="#171717"/>
<path d="M15.6836 40.089L10.8333 41.1668L11.9111 36.3166C11.2233 35.0303 10.8333 33.5608 10.8333 32.0002C10.8333 26.9376 14.9374 22.8335 20 22.8335C25.0625 22.8335 29.1666 26.9376 29.1666 32.0002C29.1666 37.0627 25.0625 41.1668 20 41.1668C18.4394 41.1668 16.9698 40.7769 15.6836 40.089ZM15.4166 32.0002C15.4166 34.5314 17.4687 36.5835 20 36.5835C22.5313 36.5835 24.5833 34.5314 24.5833 32.0002H22.75C22.75 33.519 21.5188 34.7502 20 34.7502C18.4812 34.7502 17.25 33.519 17.25 32.0002H15.4166Z" fill="#4338CA"/>
</svg>
